<?xml version="1.0" encoding="iso-8859-1"?>
<!-- Uploaded to: SVG Repo, www.svgrepo.com, Generator: SVG Repo Mixer Tools -->
<svg version="1.1" id="Layer_1" xmlns="http://www.w3.org/2000/svg" xmlns:xlink="http://www.w3.org/1999/xlink" 
	 viewBox="0 0 512 512" xml:space="preserve">
<rect x="67.341" style="fill:#995C0D;" width="61.724" height="454.866"/>
<polygon style="fill:#F95428;" points="176.795,448.763 176.795,512 149.332,493.692 121.87,512 121.87,448.763 "/>
<path style="fill:#B27214;" d="M421.602,296.608v94.898c-19.126,30.209-20.347,52.179-63.371,63.359H176.795H121.87h-18.882V0
	h255.243c19.382,19.382,39.363,20.151,63.371,63.371v94.886L421.602,296.608L421.602,296.608z"/>
<g>
	<path style="fill:#F7B239;" d="M444.659,170.793v113.292c0,6.921-5.602,12.523-12.523,12.523h-10.533h-18.638
		c-11.839,0-21.433-9.594-21.433-21.433v-95.484c0-11.827,9.594-21.433,21.433-21.433h18.638h10.533
		C439.056,158.258,444.659,163.872,444.659,170.793z"/>
	<path style="fill:#F7B239;" d="M421.602,21.299v42.073c-34.993,0-63.371-28.378-63.371-63.371h42.073
		C412.07,0,421.602,9.545,421.602,21.299z"/>
	<path style="fill:#F7B239;" d="M421.602,391.506v42.06c0,11.766-9.533,21.299-21.299,21.299h-42.073
		C358.231,419.872,386.609,391.506,421.602,391.506z"/>
	<polygon style="fill:#F7B239;" points="330.61,164.409 330.61,199.683 270.009,199.683 270.009,353.755 234.735,353.755 
		234.735,199.683 174.134,199.683 174.134,164.409 234.735,164.409 234.735,101.111 270.009,101.111 270.009,164.409 	"/>
</g>
<g>
	<circle style="fill:#4D4D4D;" cx="413.089" cy="255.817" r="9.154"/>
	<circle style="fill:#4D4D4D;" cx="413.089" cy="199.061" r="9.154"/>
</g>
</svg>